# xmcd CD database file
#
# Track frame offsets:
#	225
#	27948
#	46865
#	69540
#	89881
#	119253
#	141576
#	164715
#	187776
#	207817
#	239253
#	264871
#	284658
#
# Disc length: 4182 seconds
#
# Revision: 0
# Processed by: cddbd v1.5.1PL0 Copyright (c) Steve Scherf et al.
# Submitted via: cdripper 1.0.7
#
DISCID=c410530d
DTITLE=John Primer and the Teardrops - Easy Baby: Zoo Bar Collection, Vol. 6
DYEAR=1999
DGENRE=Blues
TTITLE0=A String to Your Heart
TTITLE1=My Baby's Gone
TTITLE2=Gambler's Blues
TTITLE3=Walkin' Thru the Park
TTITLE4=I've Got a Problem
TTITLE5=Rocking Daddy
TTITLE6=Little Rain
TTITLE7=I Need You So Bad
TTITLE8=Easy Baby
TTITLE9=That's What Love Will Make You Do
TTITLE10=That's All I Need
TTITLE11=Woke up This Morning
TTITLE12=Get Your Money Where You Spend Your Time
EXTD=YEAR: 1999
EXTT0=
EXTT1=
EXTT2=
EXTT3=
EXTT4=
EXTT5=
EXTT6=
EXTT7=
EXTT8=
EXTT9=
EXTT10=
EXTT11=
EXTT12=
PLAYORDER=
